<mxfile host="app.diagrams.net" modified="2021-10-11T08:14:12.829Z" agent="5.0 (Windows)" etag="AEsmDL7d6s-FipSI2Pxy" version="15.4.3" type="github">
  <diagram id="C5RBs43oDa-KdzZeNtuy" name="Page-1">
    <mxGraphModel dx="782" dy="420" grid="1" gridSize="10" guides="1" tooltips="1" connect="1" arrows="1" fold="1" page="1" pageScale="1" pageWidth="827" pageHeight="1169" math="0" shadow="0">
      <root>
        <mxCell id="WIyWlLk6GJQsqaUBKTNV-0" />
        <mxCell id="WIyWlLk6GJQsqaUBKTNV-1" parent="WIyWlLk6GJQsqaUBKTNV-0" />
        <mxCell id="yyb1rJmJRtYRJqYl5ROI-16" style="edgeStyle=orthogonalEdgeStyle;rounded=0;orthogonalLoop=1;jettySize=auto;html=1;exitX=0.5;exitY=1;exitDx=0;exitDy=0;entryX=0.5;entryY=0;entryDx=0;entryDy=0;" parent="WIyWlLk6GJQsqaUBKTNV-1" source="yyb1rJmJRtYRJqYl5ROI-1" target="yyb1rJmJRtYRJqYl5ROI-3" edge="1">
          <mxGeometry relative="1" as="geometry" />
        </mxCell>
        <mxCell id="yyb1rJmJRtYRJqYl5ROI-1" value="&lt;div&gt;1 statckstorm:splunk_hook&lt;/div&gt;" style="rounded=1;whiteSpace=wrap;html=1;" parent="WIyWlLk6GJQsqaUBKTNV-1" vertex="1">
          <mxGeometry x="220" y="170" width="120" height="60" as="geometry" />
        </mxCell>
        <mxCell id="yyb1rJmJRtYRJqYl5ROI-5" value="tfcmd --action=drift --drift-type=resource-remove" style="edgeStyle=orthogonalEdgeStyle;rounded=0;orthogonalLoop=1;jettySize=auto;html=1;exitX=0.5;exitY=1;exitDx=0;exitDy=0;" parent="WIyWlLk6GJQsqaUBKTNV-1" source="yyb1rJmJRtYRJqYl5ROI-3" edge="1">
          <mxGeometry relative="1" as="geometry">
            <mxPoint x="280" y="380" as="targetPoint" />
          </mxGeometry>
        </mxCell>
        <mxCell id="yyb1rJmJRtYRJqYl5ROI-3" value="2 jenkins:resource_drift" style="rounded=1;whiteSpace=wrap;html=1;" parent="WIyWlLk6GJQsqaUBKTNV-1" vertex="1">
          <mxGeometry x="220" y="260" width="120" height="60" as="geometry" />
        </mxCell>
        <mxCell id="yyb1rJmJRtYRJqYl5ROI-9" value="foreach update application instance" style="edgeStyle=orthogonalEdgeStyle;rounded=0;orthogonalLoop=1;jettySize=auto;html=1;exitX=0.5;exitY=1;exitDx=0;exitDy=0;entryX=0.5;entryY=0;entryDx=0;entryDy=0;" parent="WIyWlLk6GJQsqaUBKTNV-1" source="yyb1rJmJRtYRJqYl5ROI-6" target="yyb1rJmJRtYRJqYl5ROI-8" edge="1">
          <mxGeometry relative="1" as="geometry" />
        </mxCell>
        <mxCell id="yyb1rJmJRtYRJqYl5ROI-6" value="3.1 tfcmd:clone resource config from git:oneux_resource_configs" style="rounded=1;whiteSpace=wrap;html=1;" parent="WIyWlLk6GJQsqaUBKTNV-1" vertex="1">
          <mxGeometry x="220" y="380" width="120" height="60" as="geometry" />
        </mxCell>
        <mxCell id="yyb1rJmJRtYRJqYl5ROI-12" style="edgeStyle=orthogonalEdgeStyle;rounded=0;orthogonalLoop=1;jettySize=auto;html=1;exitX=0.5;exitY=1;exitDx=0;exitDy=0;entryX=0.5;entryY=0;entryDx=0;entryDy=0;" parent="WIyWlLk6GJQsqaUBKTNV-1" source="yyb1rJmJRtYRJqYl5ROI-8" target="yyb1rJmJRtYRJqYl5ROI-10" edge="1">
          <mxGeometry relative="1" as="geometry" />
        </mxCell>
        <mxCell id="yyb1rJmJRtYRJqYl5ROI-8" value="3.2 tfcmd:clone application repo from git" style="rounded=1;whiteSpace=wrap;html=1;" parent="WIyWlLk6GJQsqaUBKTNV-1" vertex="1">
          <mxGeometry x="220" y="490" width="120" height="60" as="geometry" />
        </mxCell>
        <mxCell id="yyb1rJmJRtYRJqYl5ROI-15" style="edgeStyle=orthogonalEdgeStyle;rounded=0;orthogonalLoop=1;jettySize=auto;html=1;exitX=0.5;exitY=1;exitDx=0;exitDy=0;entryX=0.5;entryY=0;entryDx=0;entryDy=0;" parent="WIyWlLk6GJQsqaUBKTNV-1" source="yyb1rJmJRtYRJqYl5ROI-10" target="yyb1rJmJRtYRJqYl5ROI-13" edge="1">
          <mxGeometry relative="1" as="geometry" />
        </mxCell>
        <mxCell id="yyb1rJmJRtYRJqYl5ROI-10" value="3.3 tfcmd:remove resource tf.json" style="rounded=1;whiteSpace=wrap;html=1;" parent="WIyWlLk6GJQsqaUBKTNV-1" vertex="1">
          <mxGeometry x="220" y="585" width="120" height="65" as="geometry" />
        </mxCell>
        <mxCell id="yyb1rJmJRtYRJqYl5ROI-22" style="edgeStyle=orthogonalEdgeStyle;rounded=0;orthogonalLoop=1;jettySize=auto;html=1;exitX=0.5;exitY=1;exitDx=0;exitDy=0;entryX=0.5;entryY=0;entryDx=0;entryDy=0;" parent="WIyWlLk6GJQsqaUBKTNV-1" source="yyb1rJmJRtYRJqYl5ROI-13" target="yyb1rJmJRtYRJqYl5ROI-20" edge="1">
          <mxGeometry relative="1" as="geometry" />
        </mxCell>
        <mxCell id="yyb1rJmJRtYRJqYl5ROI-13" value="3.4 tfcmd: terraform state rm resource.id" style="rounded=1;whiteSpace=wrap;html=1;" parent="WIyWlLk6GJQsqaUBKTNV-1" vertex="1">
          <mxGeometry x="220" y="690" width="120" height="60" as="geometry" />
        </mxCell>
        <mxCell id="yyb1rJmJRtYRJqYl5ROI-25" style="edgeStyle=orthogonalEdgeStyle;rounded=0;orthogonalLoop=1;jettySize=auto;html=1;exitX=0.5;exitY=1;exitDx=0;exitDy=0;entryX=0.5;entryY=0;entryDx=0;entryDy=0;" parent="WIyWlLk6GJQsqaUBKTNV-1" source="yyb1rJmJRtYRJqYl5ROI-20" target="yyb1rJmJRtYRJqYl5ROI-23" edge="1">
          <mxGeometry relative="1" as="geometry" />
        </mxCell>
        <mxCell id="yyb1rJmJRtYRJqYl5ROI-20" value="3.5 tfcmd:push change to git application repo" style="rounded=1;whiteSpace=wrap;html=1;" parent="WIyWlLk6GJQsqaUBKTNV-1" vertex="1">
          <mxGeometry x="220" y="780" width="120" height="60" as="geometry" />
        </mxCell>
        <mxCell id="yyb1rJmJRtYRJqYl5ROI-27" style="edgeStyle=orthogonalEdgeStyle;rounded=0;orthogonalLoop=1;jettySize=auto;html=1;exitX=0.5;exitY=1;exitDx=0;exitDy=0;entryX=0.5;entryY=0;entryDx=0;entryDy=0;" parent="WIyWlLk6GJQsqaUBKTNV-1" source="yyb1rJmJRtYRJqYl5ROI-23" target="yyb1rJmJRtYRJqYl5ROI-26" edge="1">
          <mxGeometry relative="1" as="geometry" />
        </mxCell>
        <mxCell id="yyb1rJmJRtYRJqYl5ROI-23" value="3.6 tfcmd: create/update jenkins application pipeline" style="rounded=1;whiteSpace=wrap;html=1;" parent="WIyWlLk6GJQsqaUBKTNV-1" vertex="1">
          <mxGeometry x="220" y="870" width="120" height="60" as="geometry" />
        </mxCell>
        <mxCell id="yyb1rJmJRtYRJqYl5ROI-29" style="edgeStyle=orthogonalEdgeStyle;rounded=0;orthogonalLoop=1;jettySize=auto;html=1;exitX=0.5;exitY=1;exitDx=0;exitDy=0;entryX=0.5;entryY=0;entryDx=0;entryDy=0;" parent="WIyWlLk6GJQsqaUBKTNV-1" source="yyb1rJmJRtYRJqYl5ROI-26" target="yyb1rJmJRtYRJqYl5ROI-28" edge="1">
          <mxGeometry relative="1" as="geometry" />
        </mxCell>
        <mxCell id="yyb1rJmJRtYRJqYl5ROI-26" value="3.7 tfcmd: create application in awx" style="rounded=1;whiteSpace=wrap;html=1;" parent="WIyWlLk6GJQsqaUBKTNV-1" vertex="1">
          <mxGeometry x="220" y="960" width="120" height="60" as="geometry" />
        </mxCell>
        <mxCell id="yyb1rJmJRtYRJqYl5ROI-32" style="edgeStyle=orthogonalEdgeStyle;rounded=0;orthogonalLoop=1;jettySize=auto;html=1;exitX=0.5;exitY=1;exitDx=0;exitDy=0;entryX=0.5;entryY=0;entryDx=0;entryDy=0;" parent="WIyWlLk6GJQsqaUBKTNV-1" source="yyb1rJmJRtYRJqYl5ROI-28" target="yyb1rJmJRtYRJqYl5ROI-30" edge="1">
          <mxGeometry relative="1" as="geometry" />
        </mxCell>
        <mxCell id="yyb1rJmJRtYRJqYl5ROI-28" value="3.8 tfcmd: update thim awx application" style="rounded=1;whiteSpace=wrap;html=1;" parent="WIyWlLk6GJQsqaUBKTNV-1" vertex="1">
          <mxGeometry x="220" y="1040" width="120" height="60" as="geometry" />
        </mxCell>
        <mxCell id="yyb1rJmJRtYRJqYl5ROI-33" style="edgeStyle=orthogonalEdgeStyle;rounded=0;orthogonalLoop=1;jettySize=auto;html=1;exitX=0.5;exitY=1;exitDx=0;exitDy=0;entryX=0.5;entryY=0;entryDx=0;entryDy=0;" parent="WIyWlLk6GJQsqaUBKTNV-1" source="yyb1rJmJRtYRJqYl5ROI-30" target="yyb1rJmJRtYRJqYl5ROI-31" edge="1">
          <mxGeometry relative="1" as="geometry" />
        </mxCell>
        <mxCell id="yyb1rJmJRtYRJqYl5ROI-30" value="3.9 tfcmd create inventory &amp;amp; source in awx" style="rounded=1;whiteSpace=wrap;html=1;" parent="WIyWlLk6GJQsqaUBKTNV-1" vertex="1">
          <mxGeometry x="220" y="1130" width="120" height="60" as="geometry" />
        </mxCell>
        <mxCell id="yyb1rJmJRtYRJqYl5ROI-31" value="3.10 tfcmd update thim awx inventory " style="rounded=1;whiteSpace=wrap;html=1;" parent="WIyWlLk6GJQsqaUBKTNV-1" vertex="1">
          <mxGeometry x="220" y="1220" width="120" height="60" as="geometry" />
        </mxCell>
      </root>
    </mxGraphModel>
  </diagram>
</mxfile>
